<svg width="390" height="241" viewBox="0 0 390 241" fill="none" xmlns="http://www.w3.org/2000/svg">
<rect x="-1" y="1" width="391" height="240" fill="url(#paint0_linear_65_1981)"/>
<path d="M32.0067 50L143.998 49.0001" stroke="white"/>
<path d="M36.6567 40.1577C37.8936 40.1577 38.9561 39.5684 39.5205 38.5723H39.6533V40H41.0146V27.499H39.5869V32.4629H39.4624C38.9561 31.4834 37.9019 30.894 36.6567 30.894C34.3823 30.894 32.8965 32.7202 32.8965 35.5259C32.8965 38.3398 34.3657 40.1577 36.6567 40.1577ZM36.9888 32.1807C38.6074 32.1807 39.6201 33.4756 39.6201 35.5259C39.6201 37.5928 38.6157 38.8711 36.9888 38.8711C35.3535 38.8711 34.374 37.6177 34.374 35.5259C34.374 33.4424 35.3618 32.1807 36.9888 32.1807ZM47.0564 40.1577C49.6047 40.1577 51.1818 38.3979 51.1818 35.5259C51.1818 32.6455 49.6047 30.894 47.0564 30.894C44.508 30.894 42.9309 32.6455 42.9309 35.5259C42.9309 38.3979 44.508 40.1577 47.0564 40.1577ZM47.0564 38.8711C45.363 38.8711 44.4084 37.6426 44.4084 35.5259C44.4084 33.4009 45.363 32.1807 47.0564 32.1807C48.7497 32.1807 49.7043 33.4009 49.7043 35.5259C49.7043 37.6426 48.7497 38.8711 47.0564 38.8711ZM56.6923 40.1577C59.2406 40.1577 60.8178 38.3979 60.8178 35.5259C60.8178 32.6455 59.2406 30.894 56.6923 30.894C54.144 30.894 52.5668 32.6455 52.5668 35.5259C52.5668 38.3979 54.144 40.1577 56.6923 40.1577ZM56.6923 38.8711C54.9989 38.8711 54.0444 37.6426 54.0444 35.5259C54.0444 33.4009 54.9989 32.1807 56.6923 32.1807C58.3857 32.1807 59.3403 33.4009 59.3403 35.5259C59.3403 37.6426 58.3857 38.8711 56.6923 38.8711ZM62.651 40H64.0787V34.4551C64.0787 33.1934 65.0665 32.2803 66.4279 32.2803C66.7101 32.2803 67.2247 32.3301 67.3409 32.3633V30.9355C67.1583 30.9106 66.8595 30.894 66.6271 30.894C65.4401 30.894 64.4108 31.5083 64.1451 32.3799H64.0123V31.0518H62.651V40ZM74.7842 35.2603H77.731L80.2959 40H82.0474L79.2749 35.0278C80.7774 34.5547 81.6822 33.2598 81.6822 31.5913C81.6822 29.4331 80.1714 28.022 77.8638 28.022H73.2901V40H74.7842V35.2603ZM74.7842 29.3501H77.6646C79.2085 29.3501 80.1382 30.2051 80.1382 31.6411C80.1382 33.1104 79.2666 33.9321 77.731 33.9321H74.7842V29.3501ZM84.553 29.3252C85.1008 29.3252 85.5491 28.877 85.5491 28.3291C85.5491 27.7812 85.1008 27.333 84.553 27.333C84.0051 27.333 83.5569 27.7812 83.5569 28.3291C83.5569 28.877 84.0051 29.3252 84.553 29.3252ZM83.8391 40H85.2668V31.0518H83.8391V40ZM94.9858 33.791C94.7368 32.1973 93.4086 30.894 91.2338 30.894C88.727 30.894 87.1333 32.7036 87.1333 35.4927C87.1333 38.3398 88.7353 40.1577 91.2421 40.1577C93.392 40.1577 94.7285 38.9458 94.9858 37.3022H93.5415C93.2758 38.3149 92.4375 38.8711 91.2338 38.8711C89.6401 38.8711 88.6108 37.5596 88.6108 35.4927C88.6108 33.4673 89.6235 32.1807 91.2338 32.1807C92.5205 32.1807 93.309 32.9028 93.5415 33.791H94.9858ZM98.3298 34.9614H98.1969V27.499H96.7692V40H98.1969V36.605L99.0519 35.8081L102.405 40H104.223L100.114 34.8867L103.966 31.0518H102.215L98.3298 34.9614Z" fill="white"/>
<line y1="-0.5" x2="326.002" y2="-0.5" transform="matrix(1 0 -0.0229132 0.999737 31.9992 199.5)" stroke="white"/>
<path d="M154.487 189C157.035 189 158.546 187.747 158.546 185.638C158.546 184.053 157.508 182.932 155.873 182.725V182.592C157.027 182.384 157.94 181.255 157.94 180.01C157.94 178.176 156.595 177.022 154.395 177.022H149.813V189H154.487ZM151.307 178.342H154.08C155.566 178.342 156.429 179.047 156.429 180.268C156.429 181.538 155.508 182.185 153.698 182.185H151.307V178.342ZM151.307 187.68V183.472H154.121C156.031 183.472 157.01 184.177 157.01 185.563C157.01 186.95 156.064 187.68 154.263 187.68H151.307ZM166.322 186.684C165.949 187.473 165.169 187.896 164.015 187.896C162.496 187.896 161.508 186.775 161.433 185.007V184.941H167.866V184.393C167.866 181.612 166.397 179.894 163.982 179.894C161.524 179.894 159.947 181.72 159.947 184.534C159.947 187.365 161.5 189.158 163.982 189.158C165.94 189.158 167.335 188.211 167.75 186.684H166.322ZM163.965 181.156C165.384 181.156 166.331 182.202 166.364 183.787H161.433C161.541 182.202 162.537 181.156 163.965 181.156ZM169.492 182.5C169.492 183.795 170.256 184.518 171.932 184.924L173.468 185.298C174.423 185.53 174.887 185.945 174.887 186.56C174.887 187.381 174.024 187.954 172.821 187.954C171.675 187.954 170.961 187.473 170.72 186.717H169.251C169.409 188.203 170.779 189.158 172.771 189.158C174.804 189.158 176.357 188.054 176.357 186.452C176.357 185.165 175.543 184.435 173.858 184.028L172.48 183.696C171.426 183.438 170.928 183.057 170.928 182.442C170.928 181.646 171.758 181.106 172.821 181.106C173.9 181.106 174.597 181.579 174.788 182.293H176.199C176.008 180.824 174.705 179.894 172.829 179.894C170.928 179.894 169.492 181.015 169.492 182.5ZM185.594 182.791C185.345 181.197 184.017 179.894 181.842 179.894C179.335 179.894 177.742 181.704 177.742 184.493C177.742 187.34 179.344 189.158 181.851 189.158C184 189.158 185.337 187.946 185.594 186.302H184.15C183.884 187.315 183.046 187.871 181.842 187.871C180.249 187.871 179.219 186.56 179.219 184.493C179.219 182.467 180.232 181.181 181.842 181.181C183.129 181.181 183.917 181.903 184.15 182.791H185.594ZM187.378 189H188.805V183.704C188.805 182.193 189.685 181.181 191.287 181.181C192.64 181.181 193.354 181.969 193.354 183.555V189H194.782V183.206C194.782 181.106 193.587 179.894 191.694 179.894C190.324 179.894 189.386 180.475 188.938 181.463H188.805V176.499H187.378V189ZM196.98 189H198.408V183.455C198.408 182.193 199.396 181.28 200.757 181.28C201.039 181.28 201.554 181.33 201.67 181.363V179.936C201.488 179.911 201.189 179.894 200.956 179.894C199.769 179.894 198.74 180.508 198.475 181.38H198.342V180.052H196.98V189ZM203.794 178.325C204.342 178.325 204.79 177.877 204.79 177.329C204.79 176.781 204.342 176.333 203.794 176.333C203.246 176.333 202.798 176.781 202.798 177.329C202.798 177.877 203.246 178.325 203.794 178.325ZM203.08 189H204.508V180.052H203.08V189ZM207.586 178.325C208.134 178.325 208.582 177.877 208.582 177.329C208.582 176.781 208.134 176.333 207.586 176.333C207.038 176.333 206.59 176.781 206.59 177.329C206.59 177.877 207.038 178.325 207.586 178.325ZM208.284 180.052H206.856V189.465C206.856 190.453 206.524 190.851 205.511 190.851H205.295V192.071H205.544C207.42 192.071 208.284 191.283 208.284 189.44V180.052ZM217.903 180.052H216.376L213.927 187.423H213.794L211.345 180.052H209.818L213.13 189H214.591L217.903 180.052ZM220.151 178.325C220.699 178.325 221.147 177.877 221.147 177.329C221.147 176.781 220.699 176.333 220.151 176.333C219.603 176.333 219.155 176.781 219.155 177.329C219.155 177.877 219.603 178.325 220.151 178.325ZM219.437 189H220.865V180.052H219.437V189ZM223.18 189H224.607V183.704C224.607 182.135 225.529 181.181 226.956 181.181C228.384 181.181 229.065 181.944 229.065 183.555V189H230.493V183.206C230.493 181.081 229.372 179.894 227.363 179.894C225.994 179.894 225.122 180.475 224.674 181.463H224.541V180.052H223.18V189ZM236.385 192.437C238.825 192.437 240.369 191.158 240.369 189.158V180.052H239.008V181.471H238.875C238.361 180.508 237.257 179.894 236.003 179.894C233.704 179.894 232.251 181.712 232.251 184.393C232.251 187.074 233.687 188.867 236.003 188.867C237.232 188.867 238.244 188.311 238.809 187.323H238.942V189.083C238.942 190.403 237.987 191.191 236.385 191.191C235.098 191.191 234.301 190.718 234.144 189.988H232.633C232.849 191.465 234.227 192.437 236.385 192.437ZM236.319 187.605C234.658 187.605 233.729 186.344 233.729 184.393C233.729 182.442 234.658 181.181 236.319 181.181C237.97 181.181 238.975 182.442 238.975 184.393C238.975 186.344 237.979 187.605 236.319 187.605Z" fill="white" fill-opacity="0.75"/>
<line x1="245.998" y1="50" x2="358.002" y2="50" stroke="white"/>
<path d="M265.217 31.4004H266.661C266.661 29.981 267.616 29.043 269.052 29.043C270.463 29.043 271.318 29.9893 271.318 31.2593C271.318 32.3135 270.87 32.936 269.342 34.5879L265.292 38.9707V40H273.045V38.6553H267.367V38.5225L270.089 35.7085C272.248 33.4756 272.845 32.4795 272.845 31.1016C272.845 29.1592 271.243 27.7397 269.151 27.7397C266.86 27.7397 265.217 29.2671 265.217 31.4004ZM279.186 40.2822C281.875 40.2822 283.419 38.0078 283.419 34.0317C283.419 30.064 281.85 27.7397 279.186 27.7397C276.505 27.7397 274.936 30.0557 274.936 34.0068C274.936 37.9912 276.488 40.2822 279.186 40.2822ZM279.186 38.979C277.418 38.979 276.438 37.2109 276.438 34.0068C276.438 30.8442 277.434 29.0513 279.186 29.0513C280.937 29.0513 281.917 30.8276 281.917 34.0068C281.917 37.2192 280.954 38.979 279.186 38.979ZM285.385 31.4004H286.83C286.83 29.981 287.784 29.043 289.22 29.043C290.631 29.043 291.486 29.9893 291.486 31.2593C291.486 32.3135 291.038 32.936 289.511 34.5879L285.46 38.9707V40H293.213V38.6553H287.535V38.5225L290.258 35.7085C292.416 33.4756 293.014 32.4795 293.014 31.1016C293.014 29.1592 291.412 27.7397 289.32 27.7397C287.029 27.7397 285.385 29.2671 285.385 31.4004ZM295.254 31.4004H296.698C296.698 29.981 297.653 29.043 299.089 29.043C300.5 29.043 301.355 29.9893 301.355 31.2593C301.355 32.3135 300.906 32.936 299.379 34.5879L295.328 38.9707V40H303.081V38.6553H297.404V38.5225L300.126 35.7085C302.284 33.4756 302.882 32.4795 302.882 31.1016C302.882 29.1592 301.28 27.7397 299.188 27.7397C296.897 27.7397 295.254 29.2671 295.254 31.4004ZM310.592 35.8579V34.5049H305.147V35.8579H310.592ZM316.833 40.2822C319.523 40.2822 321.067 38.0078 321.067 34.0317C321.067 30.064 319.498 27.7397 316.833 27.7397C314.152 27.7397 312.583 30.0557 312.583 34.0068C312.583 37.9912 314.135 40.2822 316.833 40.2822ZM316.833 38.979C315.065 38.979 314.086 37.2109 314.086 34.0068C314.086 30.8442 315.082 29.0513 316.833 29.0513C318.585 29.0513 319.564 30.8276 319.564 34.0068C319.564 37.2192 318.601 38.979 316.833 38.979ZM327.341 40.2739C329.798 40.2739 331.541 38.5557 331.541 36.1484C331.541 33.8242 329.889 32.1392 327.606 32.1392C326.179 32.1392 325.008 32.8198 324.419 33.9819H324.286C324.336 30.728 325.498 29.0679 327.49 29.0679C328.702 29.0679 329.582 29.6904 329.831 30.8027H331.367C331.059 28.9434 329.623 27.7397 327.44 27.7397C324.61 27.7397 322.833 30.0972 322.833 34.2144C322.833 38.2485 324.734 40.2739 327.341 40.2739ZM327.324 38.9624C325.788 38.9624 324.618 37.7505 324.618 36.1484C324.618 34.563 325.755 33.4341 327.341 33.4341C328.926 33.4341 330.03 34.563 330.03 36.1982C330.03 37.7671 328.86 38.9624 327.324 38.9624ZM338.936 35.8579V34.5049H333.49V35.8579H338.936ZM344.014 40H345.509V28.022H344.023L340.835 30.313V31.8901L343.882 29.6821H344.014V40ZM351.193 34.48H352.679C354.364 34.48 355.402 35.3433 355.402 36.7295C355.402 38.0742 354.281 38.979 352.704 38.979C351.16 38.979 350.081 38.1738 349.948 36.9121H348.504C348.612 38.9458 350.289 40.2822 352.721 40.2822C355.103 40.2822 356.938 38.7798 356.938 36.771C356.938 35.1025 355.908 34.0483 354.356 33.7993V33.6665C355.584 33.3096 356.481 32.355 356.489 30.9106C356.498 29.2339 355.136 27.7397 352.771 27.7397C350.347 27.7397 348.861 29.1758 348.711 31.1265H350.164C350.289 29.7817 351.227 29.043 352.671 29.043C354.115 29.043 354.97 29.9561 354.97 31.0767C354.97 32.3218 353.991 33.2017 352.613 33.2017H351.193V34.48Z" fill="white"/>
<g filter="url(#filter0_d_65_1981)">
<circle cx="195" cy="40" r="24" fill="#E8232F"/>
</g>
<path d="M187.293 41.6172H189.344L191.577 46H194.415L191.892 41.2437C193.27 40.7041 194.067 39.376 194.067 37.8403C194.067 35.4746 192.448 34.022 189.817 34.022H184.787V46H187.293V41.6172ZM187.293 35.981H189.468C190.713 35.981 191.494 36.7114 191.494 37.8735C191.494 39.0605 190.755 39.7495 189.493 39.7495H187.293V35.981ZM202.076 46L206.068 34.022H203.371L200.698 43.2607H200.548L197.826 34.022H194.995L199.046 46H202.076Z" fill="white"/>
<line x1="143.998" y1="119" x2="256.002" y2="119" stroke="white"/>
<path d="M200 112.434C204.184 112.434 206.715 109.129 206.715 103.527C206.715 97.9141 204.148 94.6562 200 94.6562C195.84 94.6562 193.285 97.9141 193.285 103.516C193.285 109.129 195.816 112.434 200 112.434ZM200 109.633C198.066 109.633 196.871 107.57 196.871 103.516C196.871 99.4961 198.078 97.457 200 97.457C201.934 97.457 203.129 99.4844 203.129 103.516C203.129 107.57 201.945 109.633 200 109.633Z" fill="white"/>
<path d="M122.238 105.812H124.113C124.898 109.715 127.746 111.988 131.707 111.988C135.375 111.977 138.094 109.961 138.691 106.891H135.316C134.859 108.227 133.605 109.129 131.719 109.129C129.703 109.129 128.203 107.934 127.594 105.812H133.324V104.465H127.348C127.324 104.172 127.312 103.867 127.312 103.539C127.312 103.246 127.324 102.965 127.348 102.684H133.324V101.336H127.582C128.18 99.1914 129.703 97.9492 131.719 97.9492C133.594 97.9492 134.941 99.0273 135.352 100.492H138.691C138.293 97.3984 135.504 95.1016 131.719 95.1016C127.746 95.1016 124.875 97.4102 124.102 101.336H122.238V102.684H123.926C123.914 102.965 123.902 103.246 123.902 103.539C123.902 103.855 123.914 104.172 123.938 104.465H122.238V105.812Z" fill="white"/>
<defs>
<filter id="filter0_d_65_1981" x="155" y="0" width="80" height="80" filterUnits="userSpaceOnUse" color-interpolation-filters="sRGB">
<feFlood flood-opacity="0" result="BackgroundImageFix"/>
<feColorMatrix in="SourceAlpha" type="matrix" values="0 0 0 0 0 0 0 0 0 0 0 0 0 0 0 0 0 0 127 0" result="hardAlpha"/>
<feMorphology radius="1" operator="dilate" in="SourceAlpha" result="effect1_dropShadow_65_1981"/>
<feOffset/>
<feGaussianBlur stdDeviation="7.5"/>
<feComposite in2="hardAlpha" operator="out"/>
<feColorMatrix type="matrix" values="0 0 0 0 0 0 0 0 0 0 0 0 0 0 0 0 0 0 0.33 0"/>
<feBlend mode="normal" in2="BackgroundImageFix" result="effect1_dropShadow_65_1981"/>
<feBlend mode="normal" in="SourceGraphic" in2="effect1_dropShadow_65_1981" result="shape"/>
</filter>
<linearGradient id="paint0_linear_65_1981" x1="194" y1="230.916" x2="194" y2="1.00001" gradientUnits="userSpaceOnUse">
<stop stop-color="#007DB6"/>
<stop offset="1" stop-color="#0094D6"/>
</linearGradient>
</defs>
</svg>
